<svg width="22" height="22" viewBox="0 0 22 22" fill="none" xmlns="http://www.w3.org/2000/svg">
<path d="M18.6484 15.7266H17.1381C17.035 15.7266 16.9383 15.7717 16.8738 15.8512C16.7234 16.0338 16.5623 16.21 16.3926 16.3775C15.6984 17.0724 14.8761 17.6262 13.9713 18.0082C13.0338 18.4042 12.0262 18.6073 11.0086 18.6055C9.97948 18.6055 8.98261 18.4035 8.04589 18.0082C7.14103 17.6262 6.31877 17.0724 5.6246 16.3775C4.92918 15.685 4.37468 14.8642 3.99179 13.9606C3.59433 13.0238 3.39452 12.0291 3.39452 11C3.39452 9.97091 3.59647 8.97618 3.99179 8.03946C4.37421 7.13497 4.92421 6.32071 5.6246 5.62247C6.32499 4.92423 7.13925 4.37422 8.04589 3.9918C8.98261 3.59649 9.97948 3.39454 11.0086 3.39454C12.0377 3.39454 13.0346 3.59434 13.9713 3.9918C14.8779 4.37422 15.6922 4.92423 16.3926 5.62247C16.5623 5.79219 16.7213 5.96837 16.8738 6.14883C16.9383 6.22833 17.0371 6.27344 17.1381 6.27344H18.6484C18.7838 6.27344 18.8676 6.12305 18.7924 6.00919C17.1445 3.44825 14.2613 1.75313 10.985 1.76172C5.83729 1.77462 1.71015 5.95333 1.76171 11.0945C1.81327 16.1541 5.93398 20.2383 11.0086 20.2383C14.2764 20.2383 17.1467 18.5453 18.7924 15.9908C18.8654 15.877 18.7838 15.7266 18.6484 15.7266ZM20.5584 10.8647L17.5098 8.45841C17.3959 8.36817 17.2305 8.44981 17.2305 8.59376V10.2266H10.4844C10.3898 10.2266 10.3125 10.3039 10.3125 10.3984V11.6016C10.3125 11.6961 10.3898 11.7734 10.4844 11.7734H17.2305V13.4063C17.2305 13.5502 17.398 13.6318 17.5098 13.5416L20.5584 11.1354C20.5789 11.1193 20.5955 11.0987 20.607 11.0753C20.6184 11.0518 20.6243 11.0261 20.6243 11C20.6243 10.9739 20.6184 10.9482 20.607 10.9247C20.5955 10.9013 20.5789 10.8807 20.5584 10.8647Z" fill="#545454"/>
</svg>
