<svg width="16" height="16" viewBox="0 0 16 16" fill="none" xmlns="http://www.w3.org/2000/svg">
<path d="M16 4.96552C15.9994 4.38041 15.7744 3.81945 15.3745 3.40571C14.9745 2.99198 14.4323 2.75926 13.8667 2.75862H12.2667V2.2069C12.2662 1.76806 12.0975 1.34733 11.7976 1.03702C11.4976 0.726714 11.0909 0.552184 10.6667 0.551727H5.33333C4.90912 0.552184 4.50241 0.726714 4.20245 1.03702C3.90249 1.34733 3.73377 1.76806 3.73333 2.2069V2.75862H2.13333C1.56773 2.75926 1.02546 2.99198 0.625521 3.40571C0.225577 3.81945 0.000617618 4.38041 0 4.96552V6.62069H16V4.96552ZM11.2 2.75862H4.8V2.2069C4.8 2.06057 4.85619 1.92024 4.95621 1.81677C5.05623 1.7133 5.19188 1.65518 5.33333 1.65518H10.6667C10.8081 1.65518 10.9438 1.7133 11.0438 1.81677C11.1438 1.92024 11.2 2.06057 11.2 2.2069V2.75862Z" fill="#808080"/>
<path d="M10.6667 7.72413C10.6667 7.94362 10.5824 8.15412 10.4324 8.30933C10.2823 8.46453 10.0788 8.55172 9.86667 8.55172H6.13333C5.92116 8.55172 5.71768 8.46453 5.56765 8.30933C5.41762 8.15412 5.33333 7.94362 5.33333 7.72413V7.5862C5.33333 7.54962 5.31929 7.51454 5.29428 7.48867C5.26928 7.4628 5.23536 7.44827 5.2 7.44827H0V12.4138C0 12.9991 0.224761 13.5604 0.624839 13.9743C1.02492 14.3882 1.56754 14.6207 2.13333 14.6207H13.8667C14.4325 14.6207 14.9751 14.3882 15.3752 13.9743C15.7752 13.5604 16 12.9991 16 12.4138V7.44827H10.8C10.7646 7.44827 10.7307 7.4628 10.7057 7.48867C10.6807 7.51454 10.6667 7.54962 10.6667 7.5862V7.72413Z" fill="#808080"/>
</svg>
