<svg width="20" height="20" viewBox="0 0 20 20" fill="none" xmlns="http://www.w3.org/2000/svg">
<path fill-rule="evenodd" clip-rule="evenodd" d="M4.16666 16.6667H15.8333C16.0543 16.6667 16.2663 16.7545 16.4226 16.9107C16.5789 17.067 16.6667 17.279 16.6667 17.5C16.6667 17.721 16.5789 17.933 16.4226 18.0892C16.2663 18.2455 16.0543 18.3333 15.8333 18.3333H4.16666C3.94565 18.3333 3.73369 18.2455 3.57741 18.0892C3.42113 17.933 3.33333 17.721 3.33333 17.5C3.33333 17.279 3.42113 17.067 3.57741 16.9107C3.73369 16.7545 3.94565 16.6667 4.16666 16.6667ZM3.33333 12.5L11.6667 4.16666L14.1667 6.66666L5.83333 15H3.33333V12.5ZM12.5 3.33332L14.1667 1.66666L16.6667 4.16666L14.9992 5.83416L12.5 3.33332Z" fill="#545454"/>
</svg>
