<svg width="16" height="16" viewBox="0 0 16 16" fill="none" xmlns="http://www.w3.org/2000/svg">
<path d="M14.4 4.66666L8 8.83333L1.6 4.66666V2.99999L8 7.16666L14.4 2.99999V4.66666ZM14.4 1.33333H1.6C0.712 1.33333 0 2.07499 0 2.99999V13C0 13.442 0.168571 13.8659 0.468629 14.1785C0.768687 14.4911 1.17565 14.6667 1.6 14.6667H14.4C14.8243 14.6667 15.2313 14.4911 15.5314 14.1785C15.8314 13.8659 16 13.442 16 13V2.99999C16 2.55797 15.8314 2.13404 15.5314 1.82148C15.2313 1.50892 14.8243 1.33333 14.4 1.33333Z" fill="#7F7F7F"/>
</svg>
