<svg width="47" height="43" viewBox="0 0 47 43" fill="none" xmlns="http://www.w3.org/2000/svg">
<path d="M18.6917 40H17.3998V36.8005H14.2306V40H12.9387V32.7936H14.2306V35.7004H17.3998V32.7936H18.6917V40ZM22.6467 34.4287C23.3801 34.4287 23.9588 34.6473 24.3827 35.0847C24.8134 35.5221 25.0287 36.131 25.0287 36.9115V37.5575H21.4154C21.4288 38.0554 21.5668 38.4423 21.8292 38.7182C22.0916 38.9873 22.455 39.1219 22.9192 39.1219C23.2691 39.1219 23.5854 39.0883 23.868 39.021C24.1506 38.947 24.4399 38.8427 24.736 38.7081V39.7275C24.4668 39.8553 24.1876 39.9495 23.8983 40.0101C23.6089 40.0707 23.2624 40.1009 22.8587 40.1009C22.3271 40.1009 21.8527 40 21.4356 39.7981C21.0251 39.5896 20.7021 39.2767 20.4666 38.8595C20.2379 38.4423 20.1235 37.9242 20.1235 37.3052C20.1235 36.3699 20.3556 35.6566 20.8199 35.1654C21.2842 34.6742 21.8931 34.4287 22.6467 34.4287ZM22.6467 35.3673C22.3036 35.3673 22.0243 35.4783 21.809 35.7004C21.6004 35.9157 21.4793 36.2387 21.4457 36.6693H23.7973C23.7906 36.2925 23.693 35.983 23.5046 35.7407C23.323 35.4918 23.037 35.3673 22.6467 35.3673ZM27.5828 40H26.311V32.3293H27.5828V40ZM32.0854 34.4287C32.7246 34.4287 33.2393 34.6675 33.6296 35.1453C34.0198 35.6163 34.215 36.3194 34.215 37.2547C34.215 38.19 34.0131 38.8999 33.6094 39.3843C33.2124 39.8621 32.6943 40.1009 32.0551 40.1009C31.6514 40.1009 31.325 40.0269 31.0761 39.8789C30.8271 39.7309 30.6286 39.5593 30.4806 39.3641H30.3998C30.42 39.492 30.4368 39.6333 30.4503 39.788C30.4705 39.9361 30.4806 40.074 30.4806 40.2019V42.4223H29.2088V34.5296H30.2383L30.42 35.2563H30.4806C30.6286 35.0275 30.8305 34.8324 31.0861 34.6709C31.3418 34.5094 31.6749 34.4287 32.0854 34.4287ZM31.722 35.4581C31.2712 35.4581 30.9516 35.5927 30.7632 35.8619C30.5815 36.131 30.4873 36.5381 30.4806 37.0831V37.2446C30.4806 37.83 30.568 38.2808 30.743 38.5971C30.9247 38.9066 31.2577 39.0613 31.7422 39.0613C32.1392 39.0613 32.4319 38.8999 32.6203 38.5769C32.8154 38.2472 32.913 37.7997 32.913 37.2345C32.913 36.6693 32.8154 36.2319 32.6203 35.9224C32.4319 35.6129 32.1325 35.4581 31.722 35.4581Z" fill="#7A7A7A"/>
<path d="M23.5 24.75C17.2866 24.75 12.25 19.7134 12.25 13.5C12.25 7.28663 17.2866 2.25 23.5 2.25C29.7134 2.25 34.75 7.28663 34.75 13.5C34.75 19.7134 29.7134 24.75 23.5 24.75ZM23.5 11.25C23.2016 11.25 22.9155 11.3685 22.7045 11.5795C22.4935 11.7905 22.375 12.0766 22.375 12.375V18C22.375 18.2984 22.4935 18.5845 22.7045 18.7955C22.9155 19.0065 23.2016 19.125 23.5 19.125C23.7984 19.125 24.0845 19.0065 24.2955 18.7955C24.5065 18.5845 24.625 18.2984 24.625 18V12.375C24.625 12.0766 24.5065 11.7905 24.2955 11.5795C24.0845 11.3685 23.7984 11.25 23.5 11.25ZM23.5 10.125C23.7984 10.125 24.0845 10.0065 24.2955 9.7955C24.5065 9.58452 24.625 9.29837 24.625 9C24.625 8.70163 24.5065 8.41548 24.2955 8.2045C24.0845 7.99353 23.7984 7.875 23.5 7.875C23.2016 7.875 22.9155 7.99353 22.7045 8.2045C22.4935 8.41548 22.375 8.70163 22.375 9C22.375 9.29837 22.4935 9.58452 22.7045 9.7955C22.9155 10.0065 23.2016 10.125 23.5 10.125Z" fill="#7A7A7A"/>
</svg>
