<svg width="47" height="43" viewBox="0 0 47 43" fill="none" xmlns="http://www.w3.org/2000/svg">
<path d="M36.1563 9.28125C36.1553 8.38644 35.7994 7.52857 35.1667 6.89584C34.5339 6.26312 33.6761 5.90723 32.7813 5.90625H30.25V5.0625C30.2493 4.39138 29.9824 3.74796 29.5078 3.27341C29.0333 2.79886 28.3899 2.53195 27.7188 2.53125H19.2813C18.6101 2.53195 17.9667 2.79886 17.4922 3.27341C17.0176 3.74796 16.7507 4.39138 16.75 5.0625V5.90625H14.2188C13.3239 5.90723 12.4661 6.26312 11.8333 6.89584C11.2006 7.52857 10.8447 8.38644 10.8438 9.28125V11.8125H36.1563V9.28125ZM28.5625 5.90625H18.4375V5.0625C18.4375 4.83872 18.5264 4.62411 18.6846 4.46588C18.8429 4.30764 19.0575 4.21875 19.2813 4.21875H27.7188C27.9425 4.21875 28.1571 4.30764 28.3154 4.46588C28.4736 4.62411 28.5625 4.83872 28.5625 5.0625V5.90625Z" fill="#7A7A7A"/>
<path d="M27.7188 13.9219C27.7188 14.2575 27.5854 14.5795 27.3481 14.8168C27.1107 15.0542 26.7888 15.1875 26.4531 15.1875H20.5469C20.2112 15.1875 19.8893 15.0542 19.6519 14.8168C19.4146 14.5795 19.2813 14.2575 19.2813 13.9219V13.7109C19.2813 13.655 19.259 13.6013 19.2195 13.5618C19.1799 13.5222 19.1263 13.5 19.0703 13.5H10.8438V21.0937C10.8438 21.9889 11.1993 22.8473 11.8323 23.4802C12.4652 24.1132 13.3236 24.4687 14.2188 24.4687H32.7813C33.6764 24.4687 34.5348 24.1132 35.1677 23.4802C35.8007 22.8473 36.1563 21.9889 36.1563 21.0937V13.5H27.9297C27.8737 13.5 27.8201 13.5222 27.7805 13.5618C27.741 13.6013 27.7188 13.655 27.7188 13.7109V13.9219Z" fill="#7A7A7A"/>
<path d="M14.6917 40H13.3998V36.8005H10.2306V40H8.93865V32.7936H10.2306V35.7004H13.3998V32.7936H14.6917V40ZM21.3315 37.2547C21.3315 38.1631 21.096 38.8662 20.625 39.3641C20.1539 39.8553 19.5147 40.1009 18.7073 40.1009C18.2094 40.1009 17.7653 39.9899 17.375 39.7679C16.9847 39.5458 16.6786 39.2228 16.4565 38.7989C16.2345 38.375 16.1235 37.8603 16.1235 37.2547C16.1235 36.3463 16.3556 35.6499 16.8199 35.1654C17.2909 34.6742 17.9301 34.4287 18.7376 34.4287C19.2422 34.4287 19.6897 34.5397 20.0799 34.7617C20.4702 34.977 20.7763 35.2967 20.9984 35.7206C21.2204 36.1377 21.3315 36.6491 21.3315 37.2547ZM17.4255 37.2547C17.4255 37.8334 17.5264 38.2808 17.7283 38.5971C17.9368 38.9133 18.2699 39.0714 18.7275 39.0714C19.185 39.0714 19.5147 38.9133 19.7166 38.5971C19.9252 38.2808 20.0295 37.8334 20.0295 37.2547C20.0295 36.676 19.9252 36.2319 19.7166 35.9224C19.5147 35.6129 19.1817 35.4581 18.7174 35.4581C18.2665 35.4581 17.9368 35.6129 17.7283 35.9224C17.5264 36.2319 17.4255 36.676 17.4255 37.2547ZM28.9139 34.4287C29.533 34.4287 29.9972 34.5868 30.3068 34.903C30.623 35.2193 30.7811 35.7307 30.7811 36.4372V40H29.5094V36.6794C29.5094 35.8652 29.1999 35.4581 28.5809 35.4581C28.1368 35.4581 27.8205 35.6028 27.6321 35.8921C27.4437 36.1815 27.3495 36.602 27.3495 37.1538V40H26.0778V36.6794C26.0778 35.8652 25.7649 35.4581 25.1391 35.4581C24.6749 35.4581 24.3552 35.6196 24.1803 35.9426C24.0054 36.2656 23.9179 36.7265 23.9179 37.3253V40H22.6462V34.5296H23.6252L23.8069 35.2462H23.8775C24.039 34.9636 24.2644 34.7584 24.5537 34.6305C24.8498 34.4959 25.156 34.4287 25.4722 34.4287C25.8827 34.4287 26.2258 34.4993 26.5017 34.6406C26.7843 34.7752 26.9996 34.9871 27.1476 35.2765H27.2486C27.4168 34.9804 27.6523 34.7651 27.9551 34.6305C28.2579 34.4959 28.5775 34.4287 28.9139 34.4287ZM34.5748 34.4287C35.3082 34.4287 35.8869 34.6473 36.3108 35.0847C36.7414 35.5221 36.9567 36.131 36.9567 36.9115V37.5575H33.3434C33.3569 38.0554 33.4948 38.4423 33.7572 38.7182C34.0197 38.9873 34.383 39.1219 34.8473 39.1219C35.1972 39.1219 35.5134 39.0883 35.796 39.021C36.0786 38.947 36.368 38.8427 36.664 38.7081V39.7275C36.3949 39.8553 36.1156 39.9495 35.8263 40.0101C35.537 40.0707 35.1904 40.1009 34.7867 40.1009C34.2552 40.1009 33.7808 40 33.3636 39.7981C32.9532 39.5896 32.6302 39.2767 32.3947 38.8595C32.1659 38.4423 32.0515 37.9242 32.0515 37.3052C32.0515 36.3699 32.2837 35.6566 32.7479 35.1654C33.2122 34.6742 33.8212 34.4287 34.5748 34.4287ZM34.5748 35.3673C34.2316 35.3673 33.9524 35.4783 33.7371 35.7004C33.5285 35.9157 33.4073 36.2387 33.3737 36.6693H35.7254C35.7186 36.2925 35.6211 35.983 35.4327 35.7407C35.251 35.4918 34.965 35.3673 34.5748 35.3673Z" fill="#7A7A7A"/>
</svg>
