<svg width="16" height="16" viewBox="0 0 16 16" fill="none" xmlns="http://www.w3.org/2000/svg">
<g clip-path="url(#clip0)">
<path d="M15.7775 13.3047L13.5217 15.5424C13.1887 15.8839 12.7473 15.9996 12.3175 16.0001C10.4165 15.9432 8.61969 15.0094 7.14439 14.0506C4.72276 12.2889 2.50081 10.1044 1.10627 7.46456C0.57142 6.35759 -0.0561541 4.94517 0.00380597 3.70959C0.00915264 3.24479 0.134406 2.78861 0.461753 2.48902L2.71757 0.234335C3.186 -0.164105 3.639 -0.0263445 3.93876 0.437762L5.75357 3.87912C5.94459 4.28681 5.83501 4.72364 5.55003 5.01496L4.71893 5.84563C4.66762 5.91591 4.63496 5.99591 4.63413 6.08297C4.95282 7.3166 5.91831 8.45363 6.77121 9.23612C7.62411 10.0186 8.54088 11.0788 9.73091 11.3297C9.878 11.3708 10.0582 11.3852 10.1634 11.2873L11.1302 10.3041C11.4635 10.0515 11.9447 9.92804 12.3005 10.1346H12.3175L15.5909 12.0672C16.0715 12.3684 16.1216 12.9505 15.7775 13.3047Z" fill="#808080"/>
</g>
<defs>
<clipPath id="clip0">
<rect width="16" height="16" fill="white"/>
</clipPath>
</defs>
</svg>
