<svg width="47" height="43" viewBox="0 0 47 43" fill="none" xmlns="http://www.w3.org/2000/svg">
<path d="M6.08847 32.7936C7.02375 32.7936 7.70335 32.9887 8.12726 33.379C8.55789 33.7692 8.77321 34.3075 8.77321 34.9939C8.77321 35.4043 8.68574 35.7912 8.51079 36.1546C8.33585 36.5112 8.03978 36.8005 7.62261 37.0226C7.21216 37.2379 6.65367 37.3455 5.94716 37.3455H5.23056V40H3.93865V32.7936H6.08847ZM6.00772 33.8634H5.23056V36.2757H5.81595C6.34079 36.2757 6.74451 36.1815 7.02712 35.9931C7.31645 35.7979 7.46112 35.4817 7.46112 35.0443C7.46112 34.6473 7.34336 34.3513 7.10786 34.1561C6.87236 33.961 6.50564 33.8634 6.00772 33.8634ZM14.9516 37.2547C14.9516 38.1631 14.7161 38.8662 14.245 39.3641C13.774 39.8553 13.1348 40.1009 12.3274 40.1009C11.8295 40.1009 11.3854 39.9899 10.9951 39.7679C10.6048 39.5458 10.2987 39.2228 10.0766 38.7989C9.85458 38.375 9.74356 37.8603 9.74356 37.2547C9.74356 36.3463 9.9757 35.6499 10.44 35.1654C10.911 34.6742 11.5502 34.4287 12.3577 34.4287C12.8623 34.4287 13.3098 34.5397 13.7 34.7617C14.0903 34.977 14.3964 35.2967 14.6185 35.7206C14.8405 36.1377 14.9516 36.6491 14.9516 37.2547ZM11.0456 37.2547C11.0456 37.8334 11.1465 38.2808 11.3483 38.5971C11.5569 38.9133 11.89 39.0714 12.3476 39.0714C12.8051 39.0714 13.1348 38.9133 13.3367 38.5971C13.5453 38.2808 13.6496 37.8334 13.6496 37.2547C13.6496 36.676 13.5453 36.2319 13.3367 35.9224C13.1348 35.6129 12.8017 35.4581 12.3375 35.4581C11.8866 35.4581 11.5569 35.6129 11.3483 35.9224C11.1465 36.2319 11.0456 36.676 11.0456 37.2547ZM19.9906 38.4154C19.9906 38.9671 19.7921 39.3877 19.3951 39.677C19.0048 39.9596 18.443 40.1009 17.7096 40.1009C17.326 40.1009 16.9963 40.074 16.7204 40.0202C16.4513 39.9664 16.1889 39.8822 15.9332 39.7679V38.6879C16.2023 38.8158 16.4984 38.9234 16.8214 39.0109C17.1511 39.0984 17.4606 39.1421 17.7499 39.1421C18.0998 39.1421 18.3521 39.0883 18.5069 38.9806C18.6617 38.8729 18.739 38.7283 18.739 38.5466C18.739 38.4389 18.7088 38.3447 18.6482 38.264C18.5876 38.1765 18.4665 38.0823 18.2849 37.9814C18.1099 37.8805 17.8475 37.756 17.4976 37.608C17.1477 37.4734 16.855 37.3354 16.6195 37.1941C16.3907 37.0461 16.2158 36.8745 16.0947 36.6794C15.9803 36.4843 15.9231 36.2319 15.9231 35.9224C15.9231 35.4312 16.1149 35.0611 16.4984 34.8122C16.8887 34.5565 17.4068 34.4287 18.0527 34.4287C18.3892 34.4287 18.7054 34.4623 19.0015 34.5296C19.3043 34.5969 19.607 34.6978 19.9098 34.8324L19.5061 35.771C19.2504 35.6634 19.0015 35.5725 18.7592 35.4985C18.517 35.4245 18.268 35.3875 18.0123 35.3875C17.4539 35.3875 17.1746 35.5456 17.1746 35.8619C17.1746 35.9762 17.2083 36.0738 17.2756 36.1546C17.3496 36.2353 17.4741 36.3228 17.649 36.417C17.8307 36.5044 18.0864 36.6121 18.4161 36.74C18.739 36.8678 19.0183 37.0024 19.2538 37.1437C19.4893 37.2782 19.671 37.4465 19.7988 37.6483C19.9267 37.8502 19.9906 38.1059 19.9906 38.4154ZM23.3337 39.0815C23.4885 39.0815 23.6399 39.0681 23.7879 39.0412C23.9427 39.0075 24.084 38.9705 24.2118 38.9301V39.8789C24.0773 39.9394 23.9023 39.9899 23.687 40.0303C23.4717 40.0774 23.2463 40.1009 23.0108 40.1009C22.7012 40.1009 22.4186 40.0505 22.1629 39.9495C21.9073 39.8419 21.7054 39.6602 21.5574 39.4045C21.4093 39.1488 21.3353 38.7922 21.3353 38.3347V35.4884H20.5985V34.9333L21.406 34.4892L21.8097 33.3285H22.607V34.5296H24.1614V35.4884H22.607V38.3246C22.607 38.5802 22.6743 38.772 22.8089 38.8999C22.9435 39.021 23.1184 39.0815 23.3337 39.0815ZM27.1995 42.0388C27.0178 42.0388 26.8564 42.0287 26.7151 42.0085C26.5738 41.9883 26.4526 41.9614 26.3517 41.9278V40.8478C26.4594 40.8747 26.5738 40.8983 26.6949 40.9185C26.816 40.9387 26.9438 40.9487 27.0784 40.9487C27.2534 40.9487 27.4115 40.9151 27.5528 40.8478C27.7008 40.7805 27.8186 40.656 27.906 40.4744C27.9935 40.2927 28.0372 40.0336 28.0372 39.6972V32.7936H29.3292V39.6669C29.3292 40.508 29.1307 41.1136 28.7337 41.4837C28.3434 41.8538 27.832 42.0388 27.1995 42.0388ZM35.936 37.2547C35.936 38.1631 35.7005 38.8662 35.2295 39.3641C34.7585 39.8553 34.1192 40.1009 33.3118 40.1009C32.8139 40.1009 32.3698 39.9899 31.9795 39.7679C31.5893 39.5458 31.2831 39.2228 31.061 38.7989C30.839 38.375 30.728 37.8603 30.728 37.2547C30.728 36.3463 30.9601 35.6499 31.4244 35.1654C31.8954 34.6742 32.5346 34.4287 33.3421 34.4287C33.8467 34.4287 34.2942 34.5397 34.6844 34.7617C35.0747 34.977 35.3809 35.2967 35.6029 35.7206C35.825 36.1377 35.936 36.6491 35.936 37.2547ZM32.03 37.2547C32.03 37.8334 32.1309 38.2808 32.3328 38.5971C32.5414 38.9133 32.8744 39.0714 33.332 39.0714C33.7895 39.0714 34.1192 38.9133 34.3211 38.5971C34.5297 38.2808 34.634 37.8334 34.634 37.2547C34.634 36.676 34.5297 36.2319 34.3211 35.9224C34.1192 35.6129 33.7862 35.4581 33.3219 35.4581C32.8711 35.4581 32.5414 35.6129 32.3328 35.9224C32.1309 36.2319 32.03 36.676 32.03 37.2547ZM38.5224 32.3293V34.146C38.5224 34.3614 38.5157 34.57 38.5022 34.7718C38.4888 34.9737 38.4753 35.1318 38.4618 35.2462H38.5224C38.6704 35.0174 38.8723 34.8256 39.128 34.6709C39.3837 34.5094 39.7167 34.4287 40.1272 34.4287C40.7597 34.4287 41.2711 34.6675 41.6613 35.1453C42.0583 35.623 42.2568 36.3261 42.2568 37.2547C42.2568 38.1967 42.0583 38.9066 41.6613 39.3843C41.2643 39.8621 40.7429 40.1009 40.0969 40.1009C39.6865 40.1009 39.3568 40.0269 39.1078 39.8789C38.8656 39.7309 38.6704 39.5593 38.5224 39.3641H38.4316L38.1994 40H37.2507V32.3293H38.5224ZM39.7638 35.4581C39.3063 35.4581 38.9867 35.5961 38.805 35.872C38.6233 36.1478 38.5291 36.5717 38.5224 37.1437V37.2547C38.5224 37.8401 38.6099 38.2876 38.7848 38.5971C38.9665 38.9066 39.2996 39.0613 39.784 39.0613C40.1608 39.0613 40.4502 38.9066 40.652 38.5971C40.8539 38.2808 40.9548 37.83 40.9548 37.2446C40.9548 36.6458 40.8505 36.1983 40.6419 35.9022C40.4401 35.6062 40.1474 35.4581 39.7638 35.4581Z" fill="#7A7A7A"/>
<path d="M23.5 2.25C17.29 2.25 12.25 7.29 12.25 13.5C12.25 19.71 17.29 24.75 23.5 24.75C29.71 24.75 34.75 19.71 34.75 13.5C34.75 7.29 29.71 2.25 23.5 2.25ZM28 14.625H24.625V18C24.625 18.6187 24.1187 19.125 23.5 19.125C22.8813 19.125 22.375 18.6187 22.375 18V14.625H19C18.3812 14.625 17.875 14.1187 17.875 13.5C17.875 12.8813 18.3812 12.375 19 12.375H22.375V9C22.375 8.38125 22.8813 7.875 23.5 7.875C24.1187 7.875 24.625 8.38125 24.625 9V12.375H28C28.6187 12.375 29.125 12.8813 29.125 13.5C29.125 14.1187 28.6187 14.625 28 14.625Z" fill="#7A7A7A"/>
</svg>
