<svg width="47" height="43" viewBox="0 0 47 43" fill="none" xmlns="http://www.w3.org/2000/svg">
<path d="M10.2096 32.7936C11.1381 32.7936 11.8144 32.9954 12.2383 33.3992C12.6689 33.7962 12.8842 34.3445 12.8842 35.0443C12.8842 35.4615 12.7968 35.8551 12.6218 36.2252C12.4469 36.5886 12.1542 36.8813 11.7437 37.1033C11.34 37.3253 10.7882 37.4364 10.0885 37.4364H9.43242V40H7.90837V32.7936H10.2096ZM10.1288 34.0451H9.43242V36.1848H9.93707C10.3677 36.1848 10.7075 36.1007 10.9565 35.9325C11.2122 35.7576 11.34 35.4783 11.34 35.0948C11.34 34.395 10.9363 34.0451 10.1288 34.0451ZM17.2033 34.3883C17.2774 34.3883 17.3648 34.3916 17.4658 34.3984C17.5667 34.4051 17.6474 34.4152 17.708 34.4287L17.597 35.8417C17.5499 35.8282 17.4792 35.8181 17.385 35.8114C17.2975 35.7979 17.2202 35.7912 17.1529 35.7912C16.8972 35.7912 16.6516 35.8383 16.4161 35.9325C16.1806 36.02 15.9888 36.1647 15.8408 36.3665C15.6995 36.5684 15.6288 36.8442 15.6288 37.1941V40H14.125V34.4892H15.2655L15.4875 35.4178H15.5582C15.7197 35.1352 15.9417 34.8929 16.2243 34.6911C16.5069 34.4892 16.8333 34.3883 17.2033 34.3883ZM23.5172 37.2345C23.5172 38.1496 23.275 38.8561 22.7905 39.354C22.3128 39.852 21.6601 40.1009 20.8325 40.1009C20.3211 40.1009 19.8636 39.9899 19.4598 39.7679C19.0628 39.5458 18.75 39.2228 18.5212 38.7989C18.2924 38.3683 18.178 37.8468 18.178 37.2345C18.178 36.3194 18.4169 35.6163 18.8946 35.1251C19.3724 34.6339 20.0284 34.3883 20.8628 34.3883C21.3809 34.3883 21.8384 34.4993 22.2354 34.7213C22.6324 34.9434 22.9453 35.2664 23.1741 35.6903C23.4028 36.1075 23.5172 36.6222 23.5172 37.2345ZM19.7122 37.2345C19.7122 37.7795 19.7996 38.1933 19.9746 38.476C20.1563 38.7518 20.449 38.8898 20.8527 38.8898C21.2497 38.8898 21.5356 38.7518 21.7106 38.476C21.8923 38.1933 21.9831 37.7795 21.9831 37.2345C21.9831 36.6895 21.8923 36.2824 21.7106 36.0133C21.5356 35.7374 21.2463 35.5994 20.8426 35.5994C20.4456 35.5994 20.1563 35.7374 19.9746 36.0133C19.7996 36.2824 19.7122 36.6895 19.7122 37.2345ZM27.8082 35.6196H26.5062V40H25.0023V35.6196H24.1747V34.8929L25.0023 34.4892V34.0855C25.0023 33.6145 25.0797 33.2511 25.2345 32.9954C25.396 32.733 25.6214 32.548 25.9107 32.4403C26.2068 32.3327 26.5533 32.2788 26.9503 32.2788C27.2463 32.2788 27.5121 32.3024 27.7476 32.3495C27.9899 32.3966 28.185 32.4504 28.333 32.511L27.9495 33.6111C27.8351 33.5775 27.7106 33.5472 27.576 33.5203C27.4415 33.4866 27.2867 33.4698 27.1118 33.4698C26.9032 33.4698 26.7484 33.5337 26.6475 33.6616C26.5533 33.7894 26.5062 33.9509 26.5062 34.146V34.4892H27.8082V35.6196ZM29.4231 32.3293C29.6451 32.3293 29.8369 32.3831 29.9984 32.4908C30.1599 32.5917 30.2406 32.7835 30.2406 33.0661C30.2406 33.342 30.1599 33.5337 29.9984 33.6414C29.8369 33.7491 29.6451 33.8029 29.4231 33.8029C29.1943 33.8029 28.9992 33.7491 28.8377 33.6414C28.6829 33.5337 28.6055 33.342 28.6055 33.0661C28.6055 32.7835 28.6829 32.5917 28.8377 32.4908C28.9992 32.3831 29.1943 32.3293 29.4231 32.3293ZM30.17 34.4892V40H28.6661V34.4892H30.17ZM33.2522 40H31.7483V32.3293H33.2522V40ZM37.0945 34.3883C37.8548 34.3883 38.457 34.607 38.9011 35.0443C39.3452 35.475 39.5673 36.0906 39.5673 36.8913V37.618H36.0145C36.028 38.042 36.1525 38.375 36.388 38.6173C36.6302 38.8595 36.9633 38.9806 37.3872 38.9806C37.7438 38.9806 38.0668 38.947 38.3561 38.8797C38.6454 38.8057 38.9449 38.6946 39.2544 38.5466V39.7073C38.9852 39.8419 38.6993 39.9394 38.3965 40C38.1004 40.0673 37.7404 40.1009 37.3165 40.1009C36.7648 40.1009 36.2769 40 35.853 39.7981C35.4291 39.5896 35.0961 39.2767 34.8538 38.8595C34.6116 38.4423 34.4905 37.9175 34.4905 37.285C34.4905 36.639 34.5981 36.1041 34.8135 35.6802C35.0355 35.2496 35.3417 34.9266 35.7319 34.7113C36.1222 34.4959 36.5764 34.3883 37.0945 34.3883ZM37.1046 35.4581C36.8152 35.4581 36.573 35.5523 36.3779 35.7407C36.1895 35.9291 36.0784 36.2218 36.0448 36.6188H38.1542C38.1475 36.2824 38.06 36.0065 37.8918 35.7912C37.7236 35.5692 37.4612 35.4581 37.1046 35.4581Z" fill="#324192"/>
<path d="M23.5 13.5C25.9862 13.5 28 11.4862 28 9C28 6.51375 25.9862 4.5 23.5 4.5C21.0138 4.5 19 6.51375 19 9C19 11.4862 21.0138 13.5 23.5 13.5ZM23.5 15.75C20.4963 15.75 14.5 17.2575 14.5 20.25V22.5H32.5V20.25C32.5 17.2575 26.5037 15.75 23.5 15.75Z" fill="#324192"/>
</svg>
