<svg width="47" height="43" viewBox="0 0 47 43" fill="none" xmlns="http://www.w3.org/2000/svg">
<path d="M2.98753 32.7936C3.93628 32.7936 4.63606 32.9685 5.08688 33.3184C5.54443 33.6683 5.77321 34.1999 5.77321 34.9131C5.77321 35.263 5.70592 35.5624 5.57135 35.8114C5.4435 36.0604 5.27529 36.2689 5.0667 36.4372C4.85811 36.5987 4.6327 36.7299 4.39047 36.8308L6.45954 40H5.00614L3.28023 37.1538H2.23056V40H0.938651V32.7936H2.98753ZM2.90679 33.8735H2.23056V36.094H2.94716C3.47873 36.094 3.86226 35.9998 4.09777 35.8114C4.34 35.6163 4.46112 35.3303 4.46112 34.9535C4.46112 34.5632 4.33327 34.2873 4.07758 34.1259C3.82862 33.9576 3.43836 33.8735 2.90679 33.8735ZM9.5428 34.4287C10.2762 34.4287 10.8549 34.6473 11.2788 35.0847C11.7094 35.5221 11.9247 36.131 11.9247 36.9115V37.5575H8.31145C8.3249 38.0554 8.46284 38.4423 8.72526 38.7182C8.98768 38.9873 9.35103 39.1219 9.81531 39.1219C10.1652 39.1219 10.4814 39.0883 10.7641 39.021C11.0467 38.947 11.336 38.8427 11.6321 38.7081V39.7275C11.3629 39.8553 11.0837 39.9495 10.7943 40.0101C10.505 40.0707 10.1585 40.1009 9.75475 40.1009C9.22318 40.1009 8.74881 40 8.33163 39.7981C7.92118 39.5896 7.59821 39.2767 7.3627 38.8595C7.13393 38.4423 7.01954 37.9242 7.01954 37.3052C7.01954 36.3699 7.25168 35.6566 7.71596 35.1654C8.18024 34.6742 8.78918 34.4287 9.5428 34.4287ZM9.5428 35.3673C9.19963 35.3673 8.92039 35.4783 8.70508 35.7004C8.49649 35.9157 8.37537 36.2387 8.34173 36.6693H10.6934C10.6867 36.2925 10.5891 35.983 10.4007 35.7407C10.219 35.4918 9.93306 35.3673 9.5428 35.3673ZM15.4175 40.1009C14.6302 40.1009 14.0112 39.8755 13.5604 39.4247C13.1095 38.9739 12.8841 38.264 12.8841 37.2951C12.8841 36.6222 12.9952 36.0772 13.2172 35.66C13.446 35.2361 13.7589 34.9266 14.1559 34.7314C14.5529 34.5296 15.007 34.4287 15.5184 34.4287C15.8616 34.4287 16.1677 34.4623 16.4369 34.5296C16.706 34.5969 16.9348 34.6776 17.1232 34.7718L16.7498 35.771C16.5412 35.6903 16.3326 35.623 16.124 35.5692C15.9154 35.5086 15.7135 35.4783 15.5184 35.4783C14.6302 35.4783 14.1861 36.0805 14.1861 37.285C14.1861 37.8704 14.2972 38.3111 14.5192 38.6072C14.748 38.9032 15.0743 39.0513 15.4982 39.0513C15.801 39.0513 16.0702 39.0142 16.3057 38.9402C16.5412 38.8662 16.7666 38.7653 16.9819 38.6374V39.7376C16.7733 39.8587 16.5479 39.9495 16.3057 40.0101C16.0702 40.0707 15.7741 40.1009 15.4175 40.1009ZM19.5352 32.3293V34.1561C19.5352 34.3715 19.5251 34.5834 19.5049 34.792C19.4915 34.9939 19.478 35.1453 19.4646 35.2462H19.5453C19.7202 34.9703 19.949 34.7651 20.2316 34.6305C20.5142 34.4959 20.8271 34.4287 21.1703 34.4287C21.7893 34.4287 22.2738 34.5868 22.6237 34.903C22.9736 35.2193 23.1485 35.7307 23.1485 36.4372V40H21.8768V36.6895C21.8768 35.8686 21.5404 35.4581 20.8675 35.4581C20.3561 35.4581 20.0062 35.6196 19.8178 35.9426C19.6294 36.2656 19.5352 36.7265 19.5352 37.3253V40H18.2635V32.3293H19.5352ZM26.9193 34.4287C27.6258 34.4287 28.1607 34.5834 28.5241 34.8929C28.8941 35.2024 29.0792 35.6802 29.0792 36.3261V40H28.1809L27.9286 39.243H27.8882C27.6527 39.5391 27.4037 39.7578 27.1413 39.8991C26.8789 40.0336 26.5223 40.1009 26.0715 40.1009C25.5803 40.1009 25.1732 39.963 24.8502 39.6871C24.5272 39.4112 24.3657 38.984 24.3657 38.4053C24.3657 37.8401 24.571 37.4162 24.9814 37.1336C25.3986 36.851 26.0277 36.6929 26.8688 36.6592L27.8176 36.6289V36.3564C27.8176 36.0133 27.7334 35.7677 27.5652 35.6196C27.397 35.4649 27.1615 35.3875 26.8587 35.3875C26.5828 35.3875 26.3171 35.4279 26.0614 35.5086C25.8124 35.5893 25.5634 35.6836 25.3145 35.7912L24.9108 34.903C25.1799 34.7617 25.4861 34.6473 25.8292 34.5599C26.1791 34.4724 26.5425 34.4287 26.9193 34.4287ZM27.8176 37.4162L27.1514 37.4364C26.5929 37.4566 26.206 37.5541 25.9907 37.7291C25.7754 37.8973 25.6677 38.1261 25.6677 38.4154C25.6677 38.6778 25.7418 38.8662 25.8898 38.9806C26.0445 39.0883 26.2464 39.1421 26.4954 39.1421C26.8654 39.1421 27.1783 39.0378 27.434 38.8292C27.6897 38.6139 27.8176 38.2976 27.8176 37.8805V37.4162ZM33.5392 34.4287C33.6267 34.4287 33.7209 34.432 33.8218 34.4387C33.9295 34.4455 34.0203 34.4589 34.0943 34.4791L33.9833 35.66C33.916 35.6465 33.8353 35.6364 33.7411 35.6297C33.6469 35.6163 33.5627 35.6095 33.4887 35.6095C33.2196 35.6095 32.9673 35.6667 32.7318 35.7811C32.4962 35.8888 32.3045 36.0604 32.1565 36.2959C32.0151 36.5246 31.9445 36.814 31.9445 37.1639V40H30.6728V34.5296H31.6518L31.8335 35.4783H31.894C32.0555 35.189 32.2776 34.9434 32.5602 34.7415C32.8428 34.5329 33.1691 34.4287 33.5392 34.4287ZM36.8466 34.4287C37.5396 34.4287 38.0813 34.6978 38.4715 35.2361H38.522L38.6431 34.5296H39.7029V40.0404C39.7029 40.8209 39.4808 41.413 39.0367 41.8167C38.5994 42.2205 37.9433 42.4223 37.0686 42.4223C36.6783 42.4223 36.3184 42.3954 35.9886 42.3416C35.6589 42.2945 35.3461 42.2104 35.05 42.0893V41.0396C35.6758 41.3222 36.3755 41.4635 37.1493 41.4635C37.5665 41.4635 37.8828 41.3457 38.0981 41.1102C38.3201 40.8815 38.4312 40.545 38.4312 40.1009V39.9596C38.4312 39.8587 38.4345 39.7409 38.4413 39.6064C38.448 39.4718 38.4581 39.3641 38.4715 39.2834H38.4312C38.2428 39.566 38.0106 39.7746 37.7347 39.9092C37.4656 40.037 37.1594 40.1009 36.8163 40.1009C36.1501 40.1009 35.6287 39.852 35.2519 39.354C34.8751 38.8561 34.6866 38.1631 34.6866 37.2749C34.6866 36.3867 34.8751 35.6903 35.2519 35.1856C35.6354 34.681 36.167 34.4287 36.8466 34.4287ZM37.1796 35.4682C36.3856 35.4682 35.9886 36.0772 35.9886 37.2951C35.9886 38.4928 36.3924 39.0916 37.1998 39.0916C37.6439 39.0916 37.9702 38.9705 38.1788 38.7283C38.3942 38.4793 38.5018 38.0621 38.5018 37.4767V37.285C38.5018 36.639 38.3942 36.1747 38.1788 35.8921C37.9702 35.6095 37.6372 35.4682 37.1796 35.4682ZM43.5279 34.4287C44.2613 34.4287 44.84 34.6473 45.2639 35.0847C45.6945 35.5221 45.9098 36.131 45.9098 36.9115V37.5575H42.2965C42.31 38.0554 42.4479 38.4423 42.7104 38.7182C42.9728 38.9873 43.3361 39.1219 43.8004 39.1219C44.1503 39.1219 44.4665 39.0883 44.7492 39.021C45.0318 38.947 45.3211 38.8427 45.6172 38.7081V39.7275C45.348 39.8553 45.0688 39.9495 44.7794 40.0101C44.4901 40.0707 44.1436 40.1009 43.7398 40.1009C43.2083 40.1009 42.7339 40 42.3167 39.7981C41.9063 39.5896 41.5833 39.2767 41.3478 38.8595C41.119 38.4423 41.0046 37.9242 41.0046 37.3052C41.0046 36.3699 41.2368 35.6566 41.7011 35.1654C42.1653 34.6742 42.7743 34.4287 43.5279 34.4287ZM43.5279 35.3673C43.1847 35.3673 42.9055 35.4783 42.6902 35.7004C42.4816 35.9157 42.3605 36.2387 42.3268 36.6693H44.6785C44.6718 36.2925 44.5742 35.983 44.3858 35.7407C44.2041 35.4918 43.9182 35.3673 43.5279 35.3673Z" fill="#7A7A7A"/>
<g clip-path="url(#clip0)">
<path d="M32.75 8.00918H14.57C14.3529 8.05118 14.1291 8.04467 13.9148 7.99011C13.7005 7.93555 13.5009 7.83429 13.3303 7.69358C13.1597 7.55287 13.0224 7.3762 12.9281 7.17621C12.8338 6.97623 12.785 6.75788 12.785 6.53681V6.50832L32 5.76014V3.9759C32.0313 3.70969 32.0017 3.43984 31.9134 3.18674C31.8251 2.93364 31.6805 2.7039 31.4904 2.51487C31.3002 2.32584 31.0696 2.18246 30.8159 2.09556C30.5623 2.00866 30.2922 1.98051 30.026 2.01324L12.965 4.78555C12.3892 4.99802 11.8923 5.38158 11.541 5.88469C11.1897 6.3878 11.0009 6.98633 11 7.59985V23.751C11 24.3474 11.2371 24.9195 11.659 25.3413C12.081 25.763 12.6533 26 13.25 26H32.75C33.3467 26 33.919 25.763 34.341 25.3413C34.7629 24.9195 35 24.3474 35 23.751V10.2417L35.0015 10.1803C35.0015 9.60365 34.7723 9.05067 34.3645 8.64295C33.9566 8.23523 33.4033 8.00618 32.8265 8.00618L32.747 8.00768L32.75 8.00918ZM30.5 18.5047C29.9031 18.5045 29.3307 18.2673 28.9087 17.8452C28.4867 17.4232 28.2498 16.8508 28.25 16.2542C28.2502 15.6575 28.4875 15.0853 28.9098 14.6635C29.332 14.2418 29.9046 14.0049 30.5015 14.0051C30.7971 14.0052 31.0897 14.0635 31.3628 14.1767C31.6358 14.2898 31.8839 14.4556 32.0928 14.6646C32.3017 14.8736 32.4674 15.1216 32.5805 15.3946C32.6935 15.6676 32.7516 15.9602 32.7515 16.2557C32.7514 16.5511 32.6931 16.8436 32.5799 17.1166C32.4667 17.3895 32.3008 17.6374 32.0917 17.8463C31.8827 18.0551 31.6345 18.2208 31.3614 18.3337C31.0883 18.4467 30.7956 18.5048 30.5 18.5047Z" fill="#7A7A7A"/>
</g>
<defs>
<clipPath id="clip0">
<rect width="24" height="24" fill="white" transform="translate(11 2)"/>
</clipPath>
</defs>
</svg>
